%TF.GenerationSoftware,KiCad,Pcbnew,9.0.2*%
%TF.CreationDate,2025-06-18T16:52:57-05:00*%
%TF.ProjectId,SensadoTE,53656e73-6164-46f5-9445-2e6b69636164,rev?*%
%TF.SameCoordinates,Original*%
%TF.FileFunction,Copper,L1,Top*%
%TF.FilePolarity,Positive*%
%FSLAX46Y46*%
G04 Gerber Fmt 4.6, Leading zero omitted, Abs format (unit mm)*
G04 Created by KiCad (PCBNEW 9.0.2) date 2025-06-18 16:52:57*
%MOMM*%
%LPD*%
G01*
G04 APERTURE LIST*
G04 Aperture macros list*
%AMRoundRect*
0 Rectangle with rounded corners*
0 $1 Rounding radius*
0 $2 $3 $4 $5 $6 $7 $8 $9 X,Y pos of 4 corners*
0 Add a 4 corners polygon primitive as box body*
4,1,4,$2,$3,$4,$5,$6,$7,$8,$9,$2,$3,0*
0 Add four circle primitives for the rounded corners*
1,1,$1+$1,$2,$3*
1,1,$1+$1,$4,$5*
1,1,$1+$1,$6,$7*
1,1,$1+$1,$8,$9*
0 Add four rect primitives between the rounded corners*
20,1,$1+$1,$2,$3,$4,$5,0*
20,1,$1+$1,$4,$5,$6,$7,0*
20,1,$1+$1,$6,$7,$8,$9,0*
20,1,$1+$1,$8,$9,$2,$3,0*%
G04 Aperture macros list end*
%TA.AperFunction,ComponentPad*%
%ADD10R,3.000000X3.000000*%
%TD*%
%TA.AperFunction,ComponentPad*%
%ADD11C,3.000000*%
%TD*%
%TA.AperFunction,ComponentPad*%
%ADD12C,2.000000*%
%TD*%
%TA.AperFunction,ComponentPad*%
%ADD13C,5.600000*%
%TD*%
%TA.AperFunction,ComponentPad*%
%ADD14RoundRect,0.333333X-0.666667X0.666667X-0.666667X-0.666667X0.666667X-0.666667X0.666667X0.666667X0*%
%TD*%
%TA.AperFunction,Conductor*%
%ADD15C,0.200000*%
%TD*%
G04 APERTURE END LIST*
D10*
%TO.P,ModuleMicroSD1,1,GND*%
%TO.N,GND*%
X117500000Y-37800000D03*
D11*
%TO.P,ModuleMicroSD1,2,VCC*%
%TO.N,+3.3V*%
X117500000Y-42880000D03*
%TO.P,ModuleMicroSD1,3,MISO*%
%TO.N,Net-(ModuleMicroSD1-MISO)*%
X117500000Y-47960000D03*
%TO.P,ModuleMicroSD1,4,MOSI*%
%TO.N,Net-(ModuleMicroSD1-MOSI)*%
X117500000Y-53040000D03*
%TO.P,ModuleMicroSD1,5,SCK*%
%TO.N,Net-(ModuleMicroSD1-SCK)*%
X117500000Y-58120000D03*
%TO.P,ModuleMicroSD1,6,CS*%
%TO.N,Net-(ModuleMicroSD1-CS)*%
X117500000Y-63200000D03*
%TD*%
D10*
%TO.P,J5,1,Pin_1*%
%TO.N,Net-(J5-Pin_1)*%
X182500000Y-60080000D03*
D11*
%TO.P,J5,2,Pin_2*%
%TO.N,GND*%
X182500000Y-55000000D03*
%TO.P,J5,3,Pin_3*%
%TO.N,+3.3V*%
X182500000Y-49920000D03*
%TD*%
D12*
%TO.P,C2,1*%
%TO.N,+3.3V*%
X97550000Y-36450000D03*
%TO.P,C2,2*%
%TO.N,GND*%
X97550000Y-38950000D03*
%TD*%
%TO.P,R3,1*%
%TO.N,Net-(J7-Pin_1)*%
X165000000Y-40000000D03*
%TO.P,R3,2*%
%TO.N,+3.3V*%
X165000000Y-45080000D03*
%TD*%
D10*
%TO.P,J4,1,Pin_1*%
%TO.N,+3.7*%
X85000000Y-52580000D03*
D11*
%TO.P,J4,2,Pin_2*%
%TO.N,GND*%
X85000000Y-47500000D03*
%TD*%
D10*
%TO.P,J7,1,Pin_1*%
%TO.N,Net-(J7-Pin_1)*%
X172500000Y-42580000D03*
D11*
%TO.P,J7,2,Pin_2*%
%TO.N,GND*%
X172500000Y-37500000D03*
%TO.P,J7,3,Pin_3*%
%TO.N,+3.3V*%
X172500000Y-32420000D03*
%TD*%
D10*
%TO.P,J6,1,Pin_1*%
%TO.N,Net-(J6-Pin_1)*%
X175000000Y-80080000D03*
D11*
%TO.P,J6,2,Pin_2*%
%TO.N,GND*%
X175000000Y-75000000D03*
%TO.P,J6,3,Pin_3*%
%TO.N,+3.3V*%
X175000000Y-69920000D03*
%TD*%
D12*
%TO.P,R2,1*%
%TO.N,Net-(J6-Pin_1)*%
X162160000Y-70000000D03*
%TO.P,R2,2*%
%TO.N,+3.3V*%
X167240000Y-70000000D03*
%TD*%
%TO.P,esp1,1,3V3*%
%TO.N,+3.3V*%
X130300000Y-36720000D03*
%TO.P,esp1,2,GND*%
%TO.N,GND*%
X130300000Y-39260000D03*
%TO.P,esp1,3,D15*%
%TO.N,unconnected-(esp1-D15-Pad3)*%
X130300000Y-41800000D03*
%TO.P,esp1,4,D2*%
%TO.N,unconnected-(esp1-D2-Pad4)*%
X130300000Y-44340000D03*
%TO.P,esp1,5,D4*%
%TO.N,unconnected-(esp1-D4-Pad5)*%
X130300000Y-46880000D03*
%TO.P,esp1,6,RX2*%
%TO.N,unconnected-(esp1-RX2-Pad6)*%
X130300000Y-49420000D03*
%TO.P,esp1,7,TX2*%
%TO.N,unconnected-(esp1-TX2-Pad7)*%
X130300000Y-51960000D03*
%TO.P,esp1,8,D5*%
%TO.N,Net-(ModuleMicroSD1-CS)*%
X130300000Y-54500000D03*
%TO.P,esp1,9,D18*%
%TO.N,Net-(ModuleMicroSD1-SCK)*%
X130300000Y-57040000D03*
%TO.P,esp1,10,D19*%
%TO.N,Net-(ModuleMicroSD1-MISO)*%
X130300000Y-59580000D03*
%TO.P,esp1,11,D21*%
%TO.N,unconnected-(esp1-D21-Pad11)*%
X130300000Y-62120000D03*
%TO.P,esp1,12,RX0*%
%TO.N,unconnected-(esp1-RX0-Pad12)*%
X130300000Y-64660000D03*
%TO.P,esp1,13,TX0*%
%TO.N,unconnected-(esp1-TX0-Pad13)*%
X130300000Y-67200000D03*
%TO.P,esp1,14,D22*%
%TO.N,unconnected-(esp1-D22-Pad14)*%
X130300000Y-69740000D03*
%TO.P,esp1,15,D23*%
%TO.N,Net-(ModuleMicroSD1-MOSI)*%
X130300000Y-72280000D03*
%TO.P,esp1,16,EN*%
%TO.N,unconnected-(esp1-EN-Pad16)*%
X155700000Y-72280000D03*
%TO.P,esp1,17,VP*%
%TO.N,unconnected-(esp1-VP-Pad17)*%
X155700000Y-69740000D03*
%TO.P,esp1,18,VN*%
%TO.N,unconnected-(esp1-VN-Pad18)*%
X155700000Y-67200000D03*
%TO.P,esp1,19,D34*%
%TO.N,unconnected-(esp1-D34-Pad19)*%
X155700000Y-64660000D03*
%TO.P,esp1,20,D35*%
%TO.N,unconnected-(esp1-D35-Pad20)*%
X155700000Y-62120000D03*
%TO.P,esp1,21,D32*%
%TO.N,unconnected-(esp1-D32-Pad21)*%
X155700000Y-59580000D03*
%TO.P,esp1,22,D33*%
%TO.N,unconnected-(esp1-D33-Pad22)*%
X155700000Y-57040000D03*
%TO.P,esp1,23,D25*%
%TO.N,Net-(J6-Pin_1)*%
X155700000Y-54500000D03*
%TO.P,esp1,24,D26*%
%TO.N,unconnected-(esp1-D26-Pad24)*%
X155700000Y-51960000D03*
%TO.P,esp1,25,D27*%
%TO.N,unconnected-(esp1-D27-Pad25)*%
X155700000Y-49420000D03*
%TO.P,esp1,26,D14*%
%TO.N,Net-(J5-Pin_1)*%
X155700000Y-46880000D03*
%TO.P,esp1,27,D12*%
%TO.N,unconnected-(esp1-D12-Pad27)*%
X155700000Y-44340000D03*
%TO.P,esp1,28,D13*%
%TO.N,Net-(J7-Pin_1)*%
X155700000Y-41800000D03*
%TO.P,esp1,29,GND*%
%TO.N,GND*%
X155700000Y-39260000D03*
%TO.P,esp1,30,VIN*%
%TO.N,unconnected-(esp1-VIN-Pad30)*%
X155700000Y-36720000D03*
%TD*%
%TO.P,C1,1*%
%TO.N,+3.3V*%
X107300000Y-35000000D03*
%TO.P,C1,2*%
%TO.N,GND*%
X104800000Y-35000000D03*
%TD*%
D13*
%TO.P,REF\u002A\u002A,1*%
%TO.N,N/C*%
X185000000Y-80000000D03*
%TD*%
D12*
%TO.P,R1,1*%
%TO.N,Net-(J5-Pin_1)*%
X164660000Y-52450000D03*
%TO.P,R1,2*%
%TO.N,+3.3V*%
X169740000Y-52450000D03*
%TD*%
D13*
%TO.P,REF\u002A\u002A,1*%
%TO.N,N/C*%
X185000000Y-30000000D03*
%TD*%
D14*
%TO.P,U1,1,GND*%
%TO.N,GND*%
X97350000Y-47400000D03*
D12*
%TO.P,U1,2,VO*%
%TO.N,+3.3V*%
X99890000Y-49940000D03*
%TO.P,U1,3,VI*%
%TO.N,+3.7*%
X97350000Y-52480000D03*
%TD*%
D13*
%TO.P,REF\u002A\u002A,1*%
%TO.N,N/C*%
X80000000Y-30000000D03*
%TD*%
%TO.P,REF\u002A\u002A,1*%
%TO.N,N/C*%
X80000000Y-80000000D03*
%TD*%
D15*
%TO.N,Net-(ModuleMicroSD1-CS)*%
X130160000Y-54500000D02*
X130300000Y-54500000D01*
%TD*%
M02*
