M48
; DRILL file {KiCad 9.0.2} date 2025-06-18T16:53:00-0500
; FORMAT={-:-/ absolute / metric / decimal}
; #@! TF.CreationDate,2025-06-18T16:53:00-05:00
; #@! TF.GenerationSoftware,Kicad,Pcbnew,9.0.2
; #@! TF.FileFunction,Plated,1,2,PTH
FMAT,2
METRIC
; #@! TA.AperFunction,Plated,PTH,ComponentDrill
T1C0.700
; #@! TA.AperFunction,Plated,PTH,ComponentDrill
T2C0.800
; #@! TA.AperFunction,Plated,PTH,ComponentDrill
T3C1.000
; #@! TA.AperFunction,Plated,PTH,ComponentDrill
T4C1.520
; #@! TA.AperFunction,Plated,PTH,ComponentDrill
T5C3.200
%
G90
G05
T1
X162.16Y-70.0
X164.66Y-52.45
X165.0Y-40.0
X165.0Y-45.08
X167.24Y-70.0
X169.74Y-52.45
T2
X97.35Y-47.4
X97.35Y-52.48
X97.55Y-36.45
X97.55Y-38.95
X99.89Y-49.94
X104.8Y-35.0
X107.3Y-35.0
T3
X130.3Y-36.72
X130.3Y-39.26
X130.3Y-41.8
X130.3Y-44.34
X130.3Y-46.88
X130.3Y-49.42
X130.3Y-51.96
X130.3Y-54.5
X130.3Y-57.04
X130.3Y-59.58
X130.3Y-62.12
X130.3Y-64.66
X130.3Y-67.2
X130.3Y-69.74
X130.3Y-72.28
X155.7Y-36.72
X155.7Y-39.26
X155.7Y-41.8
X155.7Y-44.34
X155.7Y-46.88
X155.7Y-49.42
X155.7Y-51.96
X155.7Y-54.5
X155.7Y-57.04
X155.7Y-59.58
X155.7Y-62.12
X155.7Y-64.66
X155.7Y-67.2
X155.7Y-69.74
X155.7Y-72.28
T4
X85.0Y-47.5
X85.0Y-52.58
X117.5Y-37.8
X117.5Y-42.88
X117.5Y-47.96
X117.5Y-53.04
X117.5Y-58.12
X117.5Y-63.2
X172.5Y-32.42
X172.5Y-37.5
X172.5Y-42.58
X175.0Y-69.92
X175.0Y-75.0
X175.0Y-80.08
X182.5Y-49.92
X182.5Y-55.0
X182.5Y-60.08
T5
X80.0Y-30.0
X80.0Y-80.0
X185.0Y-30.0
X185.0Y-80.0
M30
