%TF.GenerationSoftware,KiCad,Pcbnew,9.0.2*%
%TF.CreationDate,2025-06-18T16:52:57-05:00*%
%TF.ProjectId,SensadoTE,53656e73-6164-46f5-9445-2e6b69636164,rev?*%
%TF.SameCoordinates,Original*%
%TF.FileFunction,Copper,L2,Bot*%
%TF.FilePolarity,Positive*%
%FSLAX46Y46*%
G04 Gerber Fmt 4.6, Leading zero omitted, Abs format (unit mm)*
G04 Created by KiCad (PCBNEW 9.0.2) date 2025-06-18 16:52:57*
%MOMM*%
%LPD*%
G01*
G04 APERTURE LIST*
G04 Aperture macros list*
%AMRoundRect*
0 Rectangle with rounded corners*
0 $1 Rounding radius*
0 $2 $3 $4 $5 $6 $7 $8 $9 X,Y pos of 4 corners*
0 Add a 4 corners polygon primitive as box body*
4,1,4,$2,$3,$4,$5,$6,$7,$8,$9,$2,$3,0*
0 Add four circle primitives for the rounded corners*
1,1,$1+$1,$2,$3*
1,1,$1+$1,$4,$5*
1,1,$1+$1,$6,$7*
1,1,$1+$1,$8,$9*
0 Add four rect primitives between the rounded corners*
20,1,$1+$1,$2,$3,$4,$5,0*
20,1,$1+$1,$4,$5,$6,$7,0*
20,1,$1+$1,$6,$7,$8,$9,0*
20,1,$1+$1,$8,$9,$2,$3,0*%
G04 Aperture macros list end*
%ADD10C,0.300000*%
%TA.AperFunction,NonConductor*%
%ADD11C,0.300000*%
%TD*%
%TA.AperFunction,ComponentPad*%
%ADD12R,3.000000X3.000000*%
%TD*%
%TA.AperFunction,ComponentPad*%
%ADD13C,3.000000*%
%TD*%
%TA.AperFunction,ComponentPad*%
%ADD14C,2.000000*%
%TD*%
%TA.AperFunction,ComponentPad*%
%ADD15C,5.600000*%
%TD*%
%TA.AperFunction,ComponentPad*%
%ADD16RoundRect,0.333333X-0.666667X0.666667X-0.666667X-0.666667X0.666667X-0.666667X0.666667X0.666667X0*%
%TD*%
%TA.AperFunction,Conductor*%
%ADD17C,1.000000*%
%TD*%
G04 APERTURE END LIST*
D10*
D11*
X113659774Y-80872257D02*
X113802632Y-80800828D01*
X113802632Y-80800828D02*
X114016917Y-80800828D01*
X114016917Y-80800828D02*
X114231203Y-80872257D01*
X114231203Y-80872257D02*
X114374060Y-81015114D01*
X114374060Y-81015114D02*
X114445489Y-81157971D01*
X114445489Y-81157971D02*
X114516917Y-81443685D01*
X114516917Y-81443685D02*
X114516917Y-81657971D01*
X114516917Y-81657971D02*
X114445489Y-81943685D01*
X114445489Y-81943685D02*
X114374060Y-82086542D01*
X114374060Y-82086542D02*
X114231203Y-82229400D01*
X114231203Y-82229400D02*
X114016917Y-82300828D01*
X114016917Y-82300828D02*
X113874060Y-82300828D01*
X113874060Y-82300828D02*
X113659774Y-82229400D01*
X113659774Y-82229400D02*
X113588346Y-82157971D01*
X113588346Y-82157971D02*
X113588346Y-81657971D01*
X113588346Y-81657971D02*
X113874060Y-81657971D01*
X112945489Y-81515114D02*
X112445489Y-81515114D01*
X112231203Y-82300828D02*
X112945489Y-82300828D01*
X112945489Y-82300828D02*
X112945489Y-80800828D01*
X112945489Y-80800828D02*
X112231203Y-80800828D01*
X111302631Y-80800828D02*
X111016917Y-80800828D01*
X111016917Y-80800828D02*
X110874060Y-80872257D01*
X110874060Y-80872257D02*
X110731203Y-81015114D01*
X110731203Y-81015114D02*
X110659774Y-81300828D01*
X110659774Y-81300828D02*
X110659774Y-81800828D01*
X110659774Y-81800828D02*
X110731203Y-82086542D01*
X110731203Y-82086542D02*
X110874060Y-82229400D01*
X110874060Y-82229400D02*
X111016917Y-82300828D01*
X111016917Y-82300828D02*
X111302631Y-82300828D01*
X111302631Y-82300828D02*
X111445489Y-82229400D01*
X111445489Y-82229400D02*
X111588346Y-82086542D01*
X111588346Y-82086542D02*
X111659774Y-81800828D01*
X111659774Y-81800828D02*
X111659774Y-81300828D01*
X111659774Y-81300828D02*
X111588346Y-81015114D01*
X111588346Y-81015114D02*
X111445489Y-80872257D01*
X111445489Y-80872257D02*
X111302631Y-80800828D01*
X110231202Y-80800828D02*
X109374060Y-80800828D01*
X109802631Y-82300828D02*
X109802631Y-80800828D01*
X108874060Y-81515114D02*
X108374060Y-81515114D01*
X108159774Y-82300828D02*
X108874060Y-82300828D01*
X108874060Y-82300828D02*
X108874060Y-80800828D01*
X108874060Y-80800828D02*
X108159774Y-80800828D01*
X106659774Y-82157971D02*
X106731202Y-82229400D01*
X106731202Y-82229400D02*
X106945488Y-82300828D01*
X106945488Y-82300828D02*
X107088345Y-82300828D01*
X107088345Y-82300828D02*
X107302631Y-82229400D01*
X107302631Y-82229400D02*
X107445488Y-82086542D01*
X107445488Y-82086542D02*
X107516917Y-81943685D01*
X107516917Y-81943685D02*
X107588345Y-81657971D01*
X107588345Y-81657971D02*
X107588345Y-81443685D01*
X107588345Y-81443685D02*
X107516917Y-81157971D01*
X107516917Y-81157971D02*
X107445488Y-81015114D01*
X107445488Y-81015114D02*
X107302631Y-80872257D01*
X107302631Y-80872257D02*
X107088345Y-80800828D01*
X107088345Y-80800828D02*
X106945488Y-80800828D01*
X106945488Y-80800828D02*
X106731202Y-80872257D01*
X106731202Y-80872257D02*
X106659774Y-80943685D01*
X106016917Y-82300828D02*
X106016917Y-80800828D01*
X106016917Y-80800828D02*
X105159774Y-82300828D01*
X105159774Y-82300828D02*
X105159774Y-80800828D01*
X104445488Y-82300828D02*
X104445488Y-80800828D01*
X103802630Y-81872257D02*
X103088345Y-81872257D01*
X103945487Y-82300828D02*
X103445487Y-80800828D01*
X103445487Y-80800828D02*
X102945487Y-82300828D01*
X102802631Y-82443685D02*
X101659773Y-82443685D01*
X101302631Y-81515114D02*
X100802631Y-81515114D01*
X100588345Y-82300828D02*
X101302631Y-82300828D01*
X101302631Y-82300828D02*
X101302631Y-80800828D01*
X101302631Y-80800828D02*
X100588345Y-80800828D01*
X100088345Y-80800828D02*
X99088345Y-82300828D01*
X99088345Y-80800828D02*
X100088345Y-82300828D01*
X97659774Y-82157971D02*
X97731202Y-82229400D01*
X97731202Y-82229400D02*
X97945488Y-82300828D01*
X97945488Y-82300828D02*
X98088345Y-82300828D01*
X98088345Y-82300828D02*
X98302631Y-82229400D01*
X98302631Y-82229400D02*
X98445488Y-82086542D01*
X98445488Y-82086542D02*
X98516917Y-81943685D01*
X98516917Y-81943685D02*
X98588345Y-81657971D01*
X98588345Y-81657971D02*
X98588345Y-81443685D01*
X98588345Y-81443685D02*
X98516917Y-81157971D01*
X98516917Y-81157971D02*
X98445488Y-81015114D01*
X98445488Y-81015114D02*
X98302631Y-80872257D01*
X98302631Y-80872257D02*
X98088345Y-80800828D01*
X98088345Y-80800828D02*
X97945488Y-80800828D01*
X97945488Y-80800828D02*
X97731202Y-80872257D01*
X97731202Y-80872257D02*
X97659774Y-80943685D01*
X97088345Y-81872257D02*
X96374060Y-81872257D01*
X97231202Y-82300828D02*
X96731202Y-80800828D01*
X96731202Y-80800828D02*
X96231202Y-82300828D01*
X95945488Y-80800828D02*
X95445488Y-82300828D01*
X95445488Y-82300828D02*
X94945488Y-80800828D01*
X94516917Y-81872257D02*
X93802632Y-81872257D01*
X94659774Y-82300828D02*
X94159774Y-80800828D01*
X94159774Y-80800828D02*
X93659774Y-82300828D01*
X92302632Y-82157971D02*
X92374060Y-82229400D01*
X92374060Y-82229400D02*
X92588346Y-82300828D01*
X92588346Y-82300828D02*
X92731203Y-82300828D01*
X92731203Y-82300828D02*
X92945489Y-82229400D01*
X92945489Y-82229400D02*
X93088346Y-82086542D01*
X93088346Y-82086542D02*
X93159775Y-81943685D01*
X93159775Y-81943685D02*
X93231203Y-81657971D01*
X93231203Y-81657971D02*
X93231203Y-81443685D01*
X93231203Y-81443685D02*
X93159775Y-81157971D01*
X93159775Y-81157971D02*
X93088346Y-81015114D01*
X93088346Y-81015114D02*
X92945489Y-80872257D01*
X92945489Y-80872257D02*
X92731203Y-80800828D01*
X92731203Y-80800828D02*
X92588346Y-80800828D01*
X92588346Y-80800828D02*
X92374060Y-80872257D01*
X92374060Y-80872257D02*
X92302632Y-80943685D01*
X91659775Y-82300828D02*
X91659775Y-80800828D01*
X90659774Y-80800828D02*
X90374060Y-80800828D01*
X90374060Y-80800828D02*
X90231203Y-80872257D01*
X90231203Y-80872257D02*
X90088346Y-81015114D01*
X90088346Y-81015114D02*
X90016917Y-81300828D01*
X90016917Y-81300828D02*
X90016917Y-81800828D01*
X90016917Y-81800828D02*
X90088346Y-82086542D01*
X90088346Y-82086542D02*
X90231203Y-82229400D01*
X90231203Y-82229400D02*
X90374060Y-82300828D01*
X90374060Y-82300828D02*
X90659774Y-82300828D01*
X90659774Y-82300828D02*
X90802632Y-82229400D01*
X90802632Y-82229400D02*
X90945489Y-82086542D01*
X90945489Y-82086542D02*
X91016917Y-81800828D01*
X91016917Y-81800828D02*
X91016917Y-81300828D01*
X91016917Y-81300828D02*
X90945489Y-81015114D01*
X90945489Y-81015114D02*
X90802632Y-80872257D01*
X90802632Y-80872257D02*
X90659774Y-80800828D01*
X90374060Y-80229400D02*
X90588346Y-80443685D01*
X89374060Y-82300828D02*
X89374060Y-80800828D01*
X89374060Y-80800828D02*
X88516917Y-82300828D01*
X88516917Y-82300828D02*
X88516917Y-80800828D01*
D12*
%TO.P,ModuleMicroSD1,1,GND*%
%TO.N,GND*%
X117500000Y-37800000D03*
D13*
%TO.P,ModuleMicroSD1,2,VCC*%
%TO.N,+3.3V*%
X117500000Y-42880000D03*
%TO.P,ModuleMicroSD1,3,MISO*%
%TO.N,Net-(ModuleMicroSD1-MISO)*%
X117500000Y-47960000D03*
%TO.P,ModuleMicroSD1,4,MOSI*%
%TO.N,Net-(ModuleMicroSD1-MOSI)*%
X117500000Y-53040000D03*
%TO.P,ModuleMicroSD1,5,SCK*%
%TO.N,Net-(ModuleMicroSD1-SCK)*%
X117500000Y-58120000D03*
%TO.P,ModuleMicroSD1,6,CS*%
%TO.N,Net-(ModuleMicroSD1-CS)*%
X117500000Y-63200000D03*
%TD*%
D12*
%TO.P,J5,1,Pin_1*%
%TO.N,Net-(J5-Pin_1)*%
X182500000Y-60080000D03*
D13*
%TO.P,J5,2,Pin_2*%
%TO.N,GND*%
X182500000Y-55000000D03*
%TO.P,J5,3,Pin_3*%
%TO.N,+3.3V*%
X182500000Y-49920000D03*
%TD*%
D14*
%TO.P,C2,1*%
%TO.N,+3.3V*%
X97550000Y-36450000D03*
%TO.P,C2,2*%
%TO.N,GND*%
X97550000Y-38950000D03*
%TD*%
%TO.P,R3,1*%
%TO.N,Net-(J7-Pin_1)*%
X165000000Y-40000000D03*
%TO.P,R3,2*%
%TO.N,+3.3V*%
X165000000Y-45080000D03*
%TD*%
D12*
%TO.P,J4,1,Pin_1*%
%TO.N,+3.7*%
X85000000Y-52580000D03*
D13*
%TO.P,J4,2,Pin_2*%
%TO.N,GND*%
X85000000Y-47500000D03*
%TD*%
D12*
%TO.P,J7,1,Pin_1*%
%TO.N,Net-(J7-Pin_1)*%
X172500000Y-42580000D03*
D13*
%TO.P,J7,2,Pin_2*%
%TO.N,GND*%
X172500000Y-37500000D03*
%TO.P,J7,3,Pin_3*%
%TO.N,+3.3V*%
X172500000Y-32420000D03*
%TD*%
D12*
%TO.P,J6,1,Pin_1*%
%TO.N,Net-(J6-Pin_1)*%
X175000000Y-80080000D03*
D13*
%TO.P,J6,2,Pin_2*%
%TO.N,GND*%
X175000000Y-75000000D03*
%TO.P,J6,3,Pin_3*%
%TO.N,+3.3V*%
X175000000Y-69920000D03*
%TD*%
D14*
%TO.P,R2,1*%
%TO.N,Net-(J6-Pin_1)*%
X162160000Y-70000000D03*
%TO.P,R2,2*%
%TO.N,+3.3V*%
X167240000Y-70000000D03*
%TD*%
%TO.P,esp1,1,3V3*%
%TO.N,+3.3V*%
X130300000Y-36720000D03*
%TO.P,esp1,2,GND*%
%TO.N,GND*%
X130300000Y-39260000D03*
%TO.P,esp1,3,D15*%
%TO.N,unconnected-(esp1-D15-Pad3)*%
X130300000Y-41800000D03*
%TO.P,esp1,4,D2*%
%TO.N,unconnected-(esp1-D2-Pad4)*%
X130300000Y-44340000D03*
%TO.P,esp1,5,D4*%
%TO.N,unconnected-(esp1-D4-Pad5)*%
X130300000Y-46880000D03*
%TO.P,esp1,6,RX2*%
%TO.N,unconnected-(esp1-RX2-Pad6)*%
X130300000Y-49420000D03*
%TO.P,esp1,7,TX2*%
%TO.N,unconnected-(esp1-TX2-Pad7)*%
X130300000Y-51960000D03*
%TO.P,esp1,8,D5*%
%TO.N,Net-(ModuleMicroSD1-CS)*%
X130300000Y-54500000D03*
%TO.P,esp1,9,D18*%
%TO.N,Net-(ModuleMicroSD1-SCK)*%
X130300000Y-57040000D03*
%TO.P,esp1,10,D19*%
%TO.N,Net-(ModuleMicroSD1-MISO)*%
X130300000Y-59580000D03*
%TO.P,esp1,11,D21*%
%TO.N,unconnected-(esp1-D21-Pad11)*%
X130300000Y-62120000D03*
%TO.P,esp1,12,RX0*%
%TO.N,unconnected-(esp1-RX0-Pad12)*%
X130300000Y-64660000D03*
%TO.P,esp1,13,TX0*%
%TO.N,unconnected-(esp1-TX0-Pad13)*%
X130300000Y-67200000D03*
%TO.P,esp1,14,D22*%
%TO.N,unconnected-(esp1-D22-Pad14)*%
X130300000Y-69740000D03*
%TO.P,esp1,15,D23*%
%TO.N,Net-(ModuleMicroSD1-MOSI)*%
X130300000Y-72280000D03*
%TO.P,esp1,16,EN*%
%TO.N,unconnected-(esp1-EN-Pad16)*%
X155700000Y-72280000D03*
%TO.P,esp1,17,VP*%
%TO.N,unconnected-(esp1-VP-Pad17)*%
X155700000Y-69740000D03*
%TO.P,esp1,18,VN*%
%TO.N,unconnected-(esp1-VN-Pad18)*%
X155700000Y-67200000D03*
%TO.P,esp1,19,D34*%
%TO.N,unconnected-(esp1-D34-Pad19)*%
X155700000Y-64660000D03*
%TO.P,esp1,20,D35*%
%TO.N,unconnected-(esp1-D35-Pad20)*%
X155700000Y-62120000D03*
%TO.P,esp1,21,D32*%
%TO.N,unconnected-(esp1-D32-Pad21)*%
X155700000Y-59580000D03*
%TO.P,esp1,22,D33*%
%TO.N,unconnected-(esp1-D33-Pad22)*%
X155700000Y-57040000D03*
%TO.P,esp1,23,D25*%
%TO.N,Net-(J6-Pin_1)*%
X155700000Y-54500000D03*
%TO.P,esp1,24,D26*%
%TO.N,unconnected-(esp1-D26-Pad24)*%
X155700000Y-51960000D03*
%TO.P,esp1,25,D27*%
%TO.N,unconnected-(esp1-D27-Pad25)*%
X155700000Y-49420000D03*
%TO.P,esp1,26,D14*%
%TO.N,Net-(J5-Pin_1)*%
X155700000Y-46880000D03*
%TO.P,esp1,27,D12*%
%TO.N,unconnected-(esp1-D12-Pad27)*%
X155700000Y-44340000D03*
%TO.P,esp1,28,D13*%
%TO.N,Net-(J7-Pin_1)*%
X155700000Y-41800000D03*
%TO.P,esp1,29,GND*%
%TO.N,GND*%
X155700000Y-39260000D03*
%TO.P,esp1,30,VIN*%
%TO.N,unconnected-(esp1-VIN-Pad30)*%
X155700000Y-36720000D03*
%TD*%
%TO.P,C1,1*%
%TO.N,+3.3V*%
X107300000Y-35000000D03*
%TO.P,C1,2*%
%TO.N,GND*%
X104800000Y-35000000D03*
%TD*%
D15*
%TO.P,REF\u002A\u002A,1*%
%TO.N,N/C*%
X185000000Y-80000000D03*
%TD*%
D14*
%TO.P,R1,1*%
%TO.N,Net-(J5-Pin_1)*%
X164660000Y-52450000D03*
%TO.P,R1,2*%
%TO.N,+3.3V*%
X169740000Y-52450000D03*
%TD*%
D15*
%TO.P,REF\u002A\u002A,1*%
%TO.N,N/C*%
X185000000Y-30000000D03*
%TD*%
D16*
%TO.P,U1,1,GND*%
%TO.N,GND*%
X97350000Y-47400000D03*
D14*
%TO.P,U1,2,VO*%
%TO.N,+3.3V*%
X99890000Y-49940000D03*
%TO.P,U1,3,VI*%
%TO.N,+3.7*%
X97350000Y-52480000D03*
%TD*%
D15*
%TO.P,REF\u002A\u002A,1*%
%TO.N,N/C*%
X80000000Y-30000000D03*
%TD*%
%TO.P,REF\u002A\u002A,1*%
%TO.N,N/C*%
X80000000Y-80000000D03*
%TD*%
D17*
%TO.N,GND*%
X87600000Y-47400000D02*
X97350000Y-47400000D01*
X87500000Y-47500000D02*
X87600000Y-47400000D01*
X175000000Y-75000000D02*
X180000000Y-80000000D01*
X142500000Y-65000000D02*
X142500000Y-42500000D01*
X97550000Y-38950000D02*
X97550000Y-47200000D01*
X142500000Y-42500000D02*
X145740000Y-39260000D01*
X161499000Y-83999000D02*
X142500000Y-65000000D01*
X157460000Y-37500000D02*
X172500000Y-37500000D01*
X117500000Y-37800000D02*
X112200000Y-32500000D01*
X120300000Y-37800000D02*
X125000000Y-42500000D01*
X177500000Y-42500000D02*
X177500000Y-50000000D01*
X127060000Y-42500000D02*
X130300000Y-39260000D01*
X145740000Y-39260000D02*
X147500000Y-39260000D01*
X100850000Y-38950000D02*
X104800000Y-35000000D01*
X107300000Y-32500000D02*
X104800000Y-35000000D01*
X112200000Y-32500000D02*
X107300000Y-32500000D01*
X125000000Y-42500000D02*
X127060000Y-42500000D01*
X147500000Y-39260000D02*
X155700000Y-39260000D01*
X180000000Y-80000000D02*
X180000000Y-83999000D01*
X117500000Y-37800000D02*
X120300000Y-37800000D01*
X97550000Y-47200000D02*
X97350000Y-47400000D01*
X177500000Y-50000000D02*
X182500000Y-55000000D01*
X85000000Y-47500000D02*
X87500000Y-47500000D01*
X155700000Y-39260000D02*
X157460000Y-37500000D01*
X172500000Y-37500000D02*
X177500000Y-42500000D01*
X97550000Y-38950000D02*
X100850000Y-38950000D01*
X130300000Y-39260000D02*
X147500000Y-39260000D01*
X180000000Y-83999000D02*
X161499000Y-83999000D01*
%TO.N,+3.3V*%
X188499000Y-53499000D02*
X184920000Y-49920000D01*
X169740000Y-52450000D02*
X174790000Y-57500000D01*
X172500000Y-32420000D02*
X182500000Y-42420000D01*
X123580000Y-30000000D02*
X97500000Y-30000000D01*
X183112685Y-57500000D02*
X185000000Y-55612685D01*
X177062000Y-69920000D02*
X188499000Y-58483000D01*
X167240000Y-70000000D02*
X174920000Y-70000000D01*
X185000000Y-52420000D02*
X182500000Y-49920000D01*
X77500000Y-50000000D02*
X77500000Y-55000000D01*
X174790000Y-57500000D02*
X183112685Y-57500000D01*
X162500000Y-34920000D02*
X170000000Y-34920000D01*
X130300000Y-36720000D02*
X132100000Y-34920000D01*
X132100000Y-34920000D02*
X162500000Y-34920000D01*
X170000000Y-34920000D02*
X172500000Y-32420000D01*
X169740000Y-52450000D02*
X169740000Y-49820000D01*
X185000000Y-55612685D02*
X185000000Y-52420000D01*
X130300000Y-36720000D02*
X123580000Y-30000000D01*
X109120000Y-36820000D02*
X109120000Y-41000000D01*
X117500000Y-42880000D02*
X111000000Y-42880000D01*
X184920000Y-49920000D02*
X182500000Y-49920000D01*
X182500000Y-42420000D02*
X182500000Y-49920000D01*
X109120000Y-41000000D02*
X111000000Y-42880000D01*
X99890000Y-49940000D02*
X102500000Y-52550000D01*
X107300000Y-35000000D02*
X109120000Y-36820000D01*
X107500000Y-52500000D02*
X107500000Y-46380000D01*
X107500000Y-46380000D02*
X111000000Y-42880000D01*
X188499000Y-58483000D02*
X188499000Y-53499000D01*
X175000000Y-69920000D02*
X177062000Y-69920000D01*
X169740000Y-49820000D02*
X165000000Y-45080000D01*
X174920000Y-70000000D02*
X175000000Y-69920000D01*
X97550000Y-30050000D02*
X97500000Y-30000000D01*
X102500000Y-57500000D02*
X107500000Y-52500000D01*
X77500000Y-55000000D02*
X80000000Y-57500000D01*
X102500000Y-52550000D02*
X102500000Y-57500000D01*
X97550000Y-36450000D02*
X97550000Y-30050000D01*
X97500000Y-30000000D02*
X77500000Y-50000000D01*
X80000000Y-57500000D02*
X102500000Y-57500000D01*
%TO.N,Net-(ModuleMicroSD1-CS)*%
X137000000Y-54500000D02*
X140000000Y-57500000D01*
X140000000Y-57500000D02*
X140000000Y-75000000D01*
X125000000Y-82500000D02*
X110000000Y-67500000D01*
X114300000Y-63200000D02*
X117500000Y-63200000D01*
X132500000Y-82500000D02*
X125000000Y-82500000D01*
X140000000Y-75000000D02*
X132500000Y-82500000D01*
X130300000Y-54500000D02*
X137000000Y-54500000D01*
X110000000Y-67500000D02*
X114300000Y-63200000D01*
%TO.N,Net-(ModuleMicroSD1-SCK)*%
X122761530Y-63381530D02*
X122761530Y-70261530D01*
X117500000Y-58120000D02*
X122761530Y-63381530D01*
X122761530Y-70261530D02*
X131250000Y-78750000D01*
X135000000Y-61740000D02*
X130300000Y-57040000D01*
X131250000Y-78750000D02*
X135000000Y-75000000D01*
X135000000Y-75000000D02*
X135000000Y-61740000D01*
%TO.N,Net-(ModuleMicroSD1-MISO)*%
X129120000Y-59580000D02*
X130300000Y-59580000D01*
X117500000Y-47960000D02*
X129120000Y-59580000D01*
%TO.N,Net-(ModuleMicroSD1-MOSI)*%
X128599000Y-64139000D02*
X128599000Y-70579000D01*
X128599000Y-70579000D02*
X130300000Y-72280000D01*
X117500000Y-53040000D02*
X128599000Y-64139000D01*
%TO.N,+3.7*%
X85000000Y-52580000D02*
X97250000Y-52580000D01*
X85040000Y-52540000D02*
X85000000Y-52580000D01*
X97250000Y-52580000D02*
X97350000Y-52480000D01*
%TO.N,Net-(J6-Pin_1)*%
X162160000Y-60960000D02*
X155700000Y-54500000D01*
X175000000Y-80080000D02*
X172240000Y-80080000D01*
X162160000Y-70000000D02*
X162160000Y-60960000D01*
X172240000Y-80080000D02*
X162160000Y-70000000D01*
%TO.N,Net-(J5-Pin_1)*%
X164660000Y-52450000D02*
X159090000Y-46880000D01*
X172290000Y-60080000D02*
X182500000Y-60080000D01*
X164660000Y-52450000D02*
X172290000Y-60080000D01*
X159090000Y-46880000D02*
X155700000Y-46880000D01*
%TO.N,Net-(J7-Pin_1)*%
X169920000Y-40000000D02*
X172500000Y-42580000D01*
X155700000Y-41800000D02*
X157500000Y-40000000D01*
X165000000Y-40000000D02*
X169920000Y-40000000D01*
X157500000Y-40000000D02*
X165000000Y-40000000D01*
%TD*%
M02*
